<svg xmlns="http://www.w3.org/2000/svg" viewBox="0 0 200 200" fill="none">
  <!-- Relaxing person illustration -->
  <!-- Palm tree left -->
  <path d="M40 160 L45 130" stroke="#8B4513" stroke-width="3" fill="none"/>
  <ellipse cx="45" cy="125" rx="15" ry="8" fill="#228B22"/>
  <ellipse cx="45" cy="120" rx="12" ry="6" fill="#32CD32"/>

  <!-- Palm tree right -->
  <path d="M160 160 L155 130" stroke="#8B4513" stroke-width="3" fill="none"/>
  <ellipse cx="155" cy="125" rx="15" ry="8" fill="#228B22"/>
  <ellipse cx="155" cy="120" rx="12" ry="6" fill="#32CD32"/>

  <!-- Hammock -->
  <path d="M55 140 Q100 150 145 140" stroke="#D2691E" stroke-width="2" fill="none"/>
  <path d="M55 142 Q100 152 145 142" stroke="#D2691E" stroke-width="2" fill="none"/>
  <line x1="55" y1="140" x2="45" y2="130" stroke="#D2691E" stroke-width="1.5"/>
  <line x1="145" y1="140" x2="155" y2="130" stroke="#D2691E" stroke-width="1.5"/>

  <!-- Person resting -->
  <ellipse cx="100" cy="145" rx="8" ry="8" fill="#FFD1A0"/>
  <ellipse cx="100" cy="154" rx="12" ry="6" fill="#4A90E2"/>
  <ellipse cx="92" cy="150" rx="3" ry="8" fill="#FFD1A0"/>
  <ellipse cx="108" cy="150" rx="3" ry="8" fill="#FFD1A0"/>

  <!-- Sun -->
  <circle cx="170" cy="30" r="12" fill="#FFD700" opacity="0.8"/>

  <!-- Clouds -->
  <ellipse cx="50" cy="35" rx="15" ry="8" fill="#E0E0E0" opacity="0.6"/>
  <ellipse cx="65" cy="35" rx="12" ry="6" fill="#E0E0E0" opacity="0.6"/>

  <ellipse cx="130" cy="45" rx="12" ry="6" fill="#E0E0E0" opacity="0.6"/>
  <ellipse cx="143" cy="45" rx="10" ry="5" fill="#E0E0E0" opacity="0.6"/>
</svg>
